<?xml version="1.0" encoding="UTF-8" standalone="no"?>
<!-- Created with Inkscape (http://www.inkscape.org/) -->

<svg
   width="200mm"
   height="50mm"
   viewBox="0 0 200 50"
   version="1.1"
   id="svg1"
   xml:space="preserve"
   sodipodi:docname="123D_logo_transparent_black.svg"
   inkscape:version="1.4.2 (1:1.4.2+202505120738+ebf0e940d0)"
   inkscape:export-filename="../123D_logo_transparent_black.png"
   inkscape:export-xdpi="200"
   inkscape:export-ydpi="200"
   xmlns:inkscape="http://www.inkscape.org/namespaces/inkscape"
   xmlns:sodipodi="http://sodipodi.sourceforge.net/DTD/sodipodi-0.dtd"
   xmlns="http://www.w3.org/2000/svg"
   xmlns:svg="http://www.w3.org/2000/svg"><sodipodi:namedview
     id="namedview1"
     pagecolor="#ffffff"
     bordercolor="#000000"
     borderopacity="0.25"
     inkscape:showpageshadow="2"
     inkscape:pageopacity="0.0"
     inkscape:pagecheckerboard="0"
     inkscape:deskcolor="#d1d1d1"
     inkscape:document-units="mm"
     inkscape:zoom="1"
     inkscape:cx="255"
     inkscape:cy="250"
     inkscape:window-width="2560"
     inkscape:window-height="1313"
     inkscape:window-x="2560"
     inkscape:window-y="27"
     inkscape:window-maximized="1"
     inkscape:current-layer="layer3"
     showguides="false" /><defs
     id="defs1" /><path
     style="fill:#b2b2b2;fill-opacity:1;stroke:none;stroke-width:2.5;stroke-linecap:round;stroke-linejoin:round;stroke-dasharray:none;paint-order:markers fill stroke"
     d="m 39.339108,4.7213333 -9.656019,19.6665537 9.656019,19.417446 h -13.617 L 15.948089,24.387887 25.722108,4.7213333 Z"
     id="path5-1"
     sodipodi:nodetypes="ccccccc" /><g
     inkscape:label="Layer 1"
     inkscape:groupmode="layer"
     id="layer1"><path
       style="fill:#de7061;fill-opacity:1;stroke:none;stroke-width:1;stroke-linecap:round;stroke-linejoin:round;stroke-dasharray:none;stroke-dashoffset:0;stroke-opacity:1;paint-order:markers fill stroke"
       d="m 37.783104,24.388333 9.656,19.417 h 27.439 l -9.656,-19.417 z"
       id="path1"
       sodipodi:nodetypes="ccccc" /><path
       style="fill:#699cdb;fill-opacity:1;stroke:none;stroke-width:1;stroke-linecap:round;stroke-linejoin:round;stroke-dasharray:none;stroke-dashoffset:0;stroke-opacity:1;paint-order:markers fill stroke"
       d="m 47.439104,4.7213333 -9.656,19.6669997 h 27.439 l 9.656,-19.6669997 z"
       id="path2"
       sodipodi:nodetypes="ccccc" /><path
       style="fill:#edc948;fill-opacity:1;stroke:none;stroke-width:1;stroke-linecap:round;stroke-linejoin:round;stroke-dasharray:none;stroke-dashoffset:0;stroke-opacity:1;paint-order:markers fill stroke"
       d="m 74.878104,4.7213333 -9.656,19.6669997 9.656,19.417 9.656,-19.417 z"
       id="path3"
       sodipodi:nodetypes="ccccc" /></g><g
     inkscape:groupmode="layer"
     id="layer2"
     inkscape:label="outline"
     style="stroke-width:2.5;stroke-dasharray:none"><path
       style="opacity:1;fill:none;fill-opacity:1;stroke:#000000;stroke-width:2.5;stroke-linecap:round;stroke-linejoin:round;stroke-dasharray:none;paint-order:markers fill stroke"
       d="m 39.339123,4.7213333 -9.656019,19.6665537 9.656019,19.417446 h -13.617 L 15.948104,24.387887 25.722123,4.7213333 Z"
       id="path5"
       sodipodi:nodetypes="ccccccc" /><path
       style="opacity:1;fill:none;fill-opacity:1;stroke:#000000;stroke-width:2.5;stroke-linecap:round;stroke-linejoin:round;stroke-dasharray:none;paint-order:markers fill stroke"
       d="m 37.783104,24.388333 9.656,-19.6669997 h 27.439 l 9.656,19.6664997 -9.656,19.4175 H 47.439123 Z"
       id="path6"
       sodipodi:nodetypes="ccccccc" /><path
       style="fill:none;fill-opacity:1;stroke:#000000;stroke-width:2.5;stroke-linecap:round;stroke-linejoin:round;stroke-dasharray:none;stroke-dashoffset:0;stroke-opacity:1;paint-order:markers fill stroke"
       d="m 74.878104,4.7213333 -9.654,19.6763107 9.654,19.407689"
       id="path7"
       sodipodi:nodetypes="ccc" /><path
       style="fill:none;fill-opacity:1;stroke:#000000;stroke-width:2.5;stroke-linecap:round;stroke-linejoin:round;stroke-dasharray:none;stroke-dashoffset:0;stroke-opacity:1;paint-order:markers fill stroke"
       d="m 37.783104,24.388333 h 27.441"
       id="path8"
       sodipodi:nodetypes="cc" /><path
       style="fill:#000000;fill-opacity:1;stroke:#000000;stroke-width:1;stroke-linecap:round;stroke-linejoin:round;stroke-dasharray:none;stroke-opacity:1;paint-order:fill markers stroke"
       d="m 16.458,4.724 -9.775,19.691011 9.715,19.387135 h 2 L 8.583,24.415011 18.458,4.729846 Z"
       id="path140"
       sodipodi:nodetypes="ccccccc" /></g><g
     inkscape:groupmode="layer"
     id="layer4"
     inkscape:label="lane"
     transform="translate(0.46772167,4.3965837)"><path
       style="fill:none;fill-opacity:1;stroke:#ffffff;stroke-width:1.25;stroke-linecap:round;stroke-linejoin:miter;stroke-dasharray:3.4375,3.125;stroke-dashoffset:0;stroke-opacity:1;paint-order:markers fill stroke"
       d="M 30.426141,3.7785402 22.33592,19.844083 30.84709,36.611209"
       id="path4-1"
       sodipodi:nodetypes="ccc" /></g><g
     inkscape:groupmode="layer"
     id="layer3"
     inkscape:label="Text"><path
       style="font-size:44.5049px;line-height:1;font-family:'TeX Gyre Adventor';-inkscape-font-specification:'TeX Gyre Adventor';text-align:center;letter-spacing:0px;text-anchor:middle;white-space:pre;opacity:1;stroke:#000000;stroke-linecap:round;stroke-linejoin:round;paint-order:fill markers stroke;fill:#000000;fill-opacity:1;stroke-opacity:1"
       d="m 94.271268,10.935498 h 5.607617 v 29.907295 h 3.248855 V 7.95367 h -8.856472 z m 19.226072,29.907295 h 20.8728 v -2.981829 h -16.42231 l 10.54766,-10.102613 c 4.62851,-4.405985 6.05267,-6.853755 6.05267,-10.369642 0,-5.785637 -4.36148,-10.0136027 -10.36965,-10.0136027 -6.31969,0 -10.41414,4.2279657 -10.41414,11.2152357 h 3.24886 c 0,-5.385094 2.8038,-8.233407 7.12078,-8.233407 4.13896,0 7.12078,2.892818 7.12078,6.853755 0,3.649402 -2.67029,6.141676 -6.23068,9.524049 L 113.49734,37.860964 Z M 138.15301,30.56216 c 0,6.72024 4.67301,10.859196 10.63667,10.859196 5.78563,0 10.32513,-4.62851 10.32513,-10.547662 0,-3.960936 -1.8692,-6.987269 -5.56311,-8.856475 2.31426,-1.602176 3.38237,-3.604897 3.38237,-6.319696 0,-4.895539 -3.42687,-8.3224167 -8.27791,-8.3224167 -4.94004,0 -8.32241,3.3823727 -8.32241,8.7674657 h 3.24885 c 0,-3.649402 1.86921,-5.785637 5.07356,-5.785637 2.93733,0 4.98455,2.136235 4.98455,5.207073 0,3.115343 -2.18074,5.162569 -5.60762,5.162569 -0.13351,0 -0.44504,0 -0.84559,-0.0445 l -0.75658,-0.04451 v 2.937324 c 2.18074,0.0445 2.93732,0.08901 3.82742,0.267029 3.29336,0.756583 5.56311,3.782917 5.56311,7.209794 0,4.183461 -3.11534,7.387814 -7.12078,7.387814 -3.87193,0 -7.29881,-2.35876 -7.29881,-7.877368 z m 26.56937,10.280633 h 8.85648 c 12.86192,0 18.91458,-6.853755 18.91458,-16.333299 0,-6.186182 -2.58128,-11.081721 -7.47682,-13.97454 C 181.90128,8.6657484 178.42989,7.95367 172.46624,7.95367 h -7.74386 z m 3.29337,-2.981829 V 10.935498 h 4.584 c 4.98455,0 8.09989,0.623069 10.59217,2.136236 3.78291,2.26975 5.96365,6.408706 5.96365,11.304245 0,4.316975 -1.69118,8.099892 -4.71752,10.547662 -2.62578,2.09173 -6.00816,2.937323 -11.8383,2.937323 z"
       id="text8"
       aria-label="123D" /></g></svg>
